M48
;DRILL file {KiCad 4.0.5+dfsg1-4} date Sun Aug 13 19:07:03 2017
;FORMAT={-:-/ absolute / metric / decimal}
FMAT,2
METRIC,TZ
T1C0.400
T2C1.016
T3C1.143
%
G90
G05
M71
T1
X71.12Y-104.14
X71.12Y-111.76
X76.2Y-125.73
X77.47Y-113.03
X80.01Y-128.27
T2
X67.31Y-115.57
X67.31Y-118.11
X67.31Y-120.65
X67.31Y-123.19
X67.386Y-101.702
X67.386Y-104.242
X92.71Y-101.6
X92.71Y-104.14
X92.71Y-106.68
X92.71Y-109.22
X92.71Y-111.76
X92.71Y-114.3
X92.71Y-116.84
X92.71Y-119.38
X92.71Y-121.92
X92.71Y-124.46
X92.71Y-127.
X92.71Y-129.54
X92.71Y-132.08
X92.71Y-134.62
X92.71Y-137.16
X92.71Y-139.7
X92.71Y-142.24
X92.71Y-144.78
X92.71Y-147.32
X92.71Y-149.86
X95.25Y-101.6
X95.25Y-104.14
X95.25Y-106.68
X95.25Y-109.22
X95.25Y-111.76
X95.25Y-114.3
X95.25Y-116.84
X95.25Y-119.38
X95.25Y-121.92
X95.25Y-124.46
X95.25Y-127.
X95.25Y-129.54
X95.25Y-132.08
X95.25Y-134.62
X95.25Y-137.16
X95.25Y-139.7
X95.25Y-142.24
X95.25Y-144.78
X95.25Y-147.32
X95.25Y-149.86
T3
X73.66Y-102.87
X73.66Y-105.41
X73.66Y-107.95
X73.66Y-116.84
X73.66Y-119.38
X73.66Y-121.92
X73.66Y-130.81
X73.66Y-133.35
X73.66Y-135.89
T0
M30
