G04 #@! TF.FileFunction,Copper,L2,Bot,Signal*
%FSLAX46Y46*%
G04 Gerber Fmt 4.6, Leading zero omitted, Abs format (unit mm)*
G04 Created by KiCad (PCBNEW 4.0.5+dfsg1-4) date Sun Aug 13 19:07:22 2017*
%MOMM*%
%LPD*%
G01*
G04 APERTURE LIST*
%ADD10C,0.100000*%
%ADD11R,1.727200X1.727200*%
%ADD12O,1.727200X1.727200*%
%ADD13R,2.032000X1.727200*%
%ADD14O,2.032000X1.727200*%
%ADD15R,2.032000X2.032000*%
%ADD16O,2.032000X2.032000*%
%ADD17O,2.540000X2.032000*%
%ADD18C,0.600000*%
%ADD19C,0.500000*%
G04 APERTURE END LIST*
D10*
D11*
X92710000Y-101600000D03*
D12*
X95250000Y-101600000D03*
X92710000Y-104140000D03*
X95250000Y-104140000D03*
X92710000Y-106680000D03*
X95250000Y-106680000D03*
X92710000Y-109220000D03*
X95250000Y-109220000D03*
X92710000Y-111760000D03*
X95250000Y-111760000D03*
X92710000Y-114300000D03*
X95250000Y-114300000D03*
X92710000Y-116840000D03*
X95250000Y-116840000D03*
X92710000Y-119380000D03*
X95250000Y-119380000D03*
X92710000Y-121920000D03*
X95250000Y-121920000D03*
X92710000Y-124460000D03*
X95250000Y-124460000D03*
X92710000Y-127000000D03*
X95250000Y-127000000D03*
X92710000Y-129540000D03*
X95250000Y-129540000D03*
X92710000Y-132080000D03*
X95250000Y-132080000D03*
X92710000Y-134620000D03*
X95250000Y-134620000D03*
X92710000Y-137160000D03*
X95250000Y-137160000D03*
X92710000Y-139700000D03*
X95250000Y-139700000D03*
X92710000Y-142240000D03*
X95250000Y-142240000D03*
X92710000Y-144780000D03*
X95250000Y-144780000D03*
X92710000Y-147320000D03*
X95250000Y-147320000D03*
X92710000Y-149860000D03*
X95250000Y-149860000D03*
D13*
X67310000Y-123190000D03*
D14*
X67310000Y-120650000D03*
X67310000Y-118110000D03*
X67310000Y-115570000D03*
D15*
X67386200Y-104241600D03*
D16*
X67386200Y-101701600D03*
D17*
X73660000Y-133350000D03*
X73660000Y-135890000D03*
X73660000Y-130810000D03*
X73660000Y-119380000D03*
X73660000Y-121920000D03*
X73660000Y-116840000D03*
X73660000Y-105410000D03*
X73660000Y-107950000D03*
X73660000Y-102870000D03*
D18*
X77470000Y-113030000D03*
X76200000Y-125730000D03*
X80010000Y-128270000D03*
X71120000Y-111760000D03*
X71120000Y-104140000D03*
D19*
X71120000Y-111760000D02*
X76200000Y-111760000D01*
X76200000Y-111760000D02*
X77470000Y-113030000D01*
X76200000Y-125730000D02*
X80010000Y-128270000D01*
X71120000Y-104140000D02*
X71120000Y-111760000D01*
M02*
